<?xml version="1.0" encoding="UTF-8"?>
<svg id="Layer_1" data-name="Layer 1" xmlns="http://www.w3.org/2000/svg" viewBox="0 0 667.17 800.49">
  <defs>
    <style>
      .cls-1 {
        fill: #00cce6;
      }
    </style>
  </defs>
  <path class="cls-1" d="m666.91,333.58c0,57.98-21.58,115.86-51.15,168.43-29.74,52.87-68.95,102.81-107.4,145.54-38.56,42.84-77,79.13-105.76,104.7-14.4,12.8-26.43,22.96-34.91,29.96-4.24,3.5-7.6,6.21-9.92,8.07-1.16.93-2.06,1.64-2.69,2.14l-.73.57-.21.16-.06.05s-.04-.01-7.17-9.15c-.31-.4-.64-.83-.99-1.27-.84-1.08-1.79-2.31-2.87-3.69-.63-.81-1.3-1.67-2.01-2.58-2.11-2.71-4.58-5.89-7.46-9.59l-5.23,6.72-11.28,14.49-1.15,1.48-1.27,1.63-.46.59-.25.32-.45.58-.12.15-.27.34-.08-.07-.21-.16-.73-.57c-.63-.5-1.53-1.21-2.69-2.14-2.32-1.86-5.68-4.57-9.92-8.07-8.48-7-20.51-17.16-34.91-29.96-28.76-25.57-67.2-61.86-105.76-104.7-38.45-42.73-77.66-92.67-107.4-145.54C21.83,449.44.25,391.56.25,333.58.25,245.18,35.37,160.39,97.88,97.88S245.17.25,333.58.25s173.19,35.12,235.7,97.63,97.63,147.3,97.63,235.7Zm-109.26,135.74c26.68-47.43,42.6-93.71,42.6-135.74,0-70.72-28.1-138.55-78.11-188.56-50.01-50.01-117.84-78.1-188.56-78.1s-138.55,28.09-188.56,78.1c-50.01,50.01-78.11,117.84-78.11,188.56,0,42.03,15.92,88.31,42.6,135.74,26.51,47.13,62.3,93.03,98.85,133.63,36.44,40.5,73,75.03,100.49,99.47,9.48,8.42,17.85,15.62,24.73,21.42,6.88-5.8,15.25-13,24.73-21.42,27.49-24.44,64.05-58.97,100.49-99.47,36.55-40.6,72.34-86.5,98.85-133.63Z"/>
  <path class="cls-1" d="m600.25,333.58c0,42.03-15.92,88.31-42.6,135.74-26.51,47.13-62.3,93.03-98.85,133.63-36.44,40.5-73,75.03-100.49,99.47-9.48,8.42-17.85,15.62-24.73,21.42-6.88-5.8-15.25-13-24.73-21.42-27.49-24.44-64.05-58.97-100.49-99.47-36.55-40.6-72.34-86.5-98.85-133.63-26.68-47.43-42.6-93.71-42.6-135.74,0-70.72,28.1-138.55,78.11-188.56,50.01-50.01,117.84-78.1,188.56-78.1s138.55,28.09,188.56,78.1c50.01,50.01,78.11,117.84,78.11,188.56Zm-133.34,0c0-73.63-59.69-133.33-133.33-133.33s-133.33,59.7-133.33,133.33,59.69,133.34,133.33,133.34,133.33-59.7,133.33-133.34Z"/>
  <path class="cls-1" d="m346.91,784.05l7.13,9.18c-12.03,9.36-28.9,9.35-40.94-.01l.27-.34c.03-.05.07-.1.12-.15l.45-.58c.08-.1.16-.2.25-.32l.46-.59c.34-.44.76-.97,1.27-1.63.34-.44.73-.93,1.15-1.48,2.25-2.88,5.77-7.4,11.28-14.49l5.23-6.72c2.88,3.7,5.35,6.88,7.46,9.59l2.01,2.58c1.08,1.38,2.03,2.61,2.87,3.69l.99,1.27Z"/>
</svg>